HIERARCHY
ROOT Hips
{
   OFFSET 0.00000 0.00000 0.00000
   CHANNELS 6 Xposition Yposition Zposition Zrotation Xrotation Yrotation
   JOINT RightUpLeg
   {
      OFFSET -8.945800 -8.667070 0.101652
      CHANNELS 3 Zrotation Xrotation Yrotation
      JOINT RightLeg
      {
         OFFSET 0.000000 -44.422697 1.372700
         CHANNELS 3 Zrotation Xrotation Yrotation
         JOINT RightFoot
         {
            OFFSET 0.253549 -42.092399 -1.460590
            CHANNELS 3 Zrotation Xrotation Yrotation
            JOINT RightToes
            {
               OFFSET 0.040000 -4.415090 8.499099
               CHANNELS 3 Zrotation Xrotation Yrotation
               End Site
               {
                  OFFSET -0.080000 -0.137448 9.779790
               }
            }
         }
      }
   }
   JOINT Spine
   {
      OFFSET 0.000000 11.890501 0.000000
      CHANNELS 3 Zrotation Xrotation Yrotation
      JOINT Spine1
      {
         OFFSET 0.000000 25.657401 0.127663
         CHANNELS 3 Zrotation Xrotation Yrotation
         JOINT HEad
         {
            OFFSET 0.000000 8.734161 0.011341
            CHANNELS 3 Zrotation Xrotation Yrotation
            End Site
            {
               OFFSET -0.290000 12.774200 2.513950
            }
         }
         JOINT LeftShoulder1
         {
            OFFSET 8.990000 -0.362252 -0.220000
            CHANNELS 3 Zrotation Xrotation Yrotation
            JOINT LeftArm
            {
               OFFSET 10.282700 -0.003380 0.322123
               CHANNELS 3 Zrotation Xrotation Yrotation
               JOINT LeftForeArm
               {
                  OFFSET 32.766900 0.099144 -1.424340
                  CHANNELS 3 Zrotation Xrotation Yrotation
                  JOINT LeftHand
                  {
                     OFFSET 27.564301 0.085362 1.022160
                     CHANNELS 3 Zrotation Xrotation Yrotation
                     End Site
                     {
                        OFFSET 16.744301 -0.600000 1.502910
                     }
                  }
               }
            }
         }
         JOINT RightShoulder
         {
            OFFSET -8.990000 -0.362252 -0.220000
            CHANNELS 3 Zrotation Xrotation Yrotation
            JOINT RightArm
            {
               OFFSET -10.282700 -0.003380 0.322123
               CHANNELS 3 Zrotation Xrotation Yrotation
               JOINT RightForeArm
               {
                  OFFSET -32.897098 0.099144 -1.424340
                  CHANNELS 3 Zrotation Xrotation Yrotation
                  JOINT RightHand
                  {
                     OFFSET -27.492101 0.085362 1.022160
                     CHANNELS 3 Zrotation Xrotation Yrotation
                     End Site
                     {
                        OFFSET -16.631201 -0.600000 1.502910
                     }
                  }
               }
            }
         }
      }
   }
   JOINT LeftUpLeg
   {
      OFFSET 8.945800 -8.667070 0.101652
      CHANNELS 3 Zrotation Xrotation Yrotation
      JOINT LeftLeg
      {
         OFFSET 0.000000 -44.422697 1.372700
         CHANNELS 3 Zrotation Xrotation Yrotation
         JOINT LeftFoot
         {
            OFFSET -0.253549 -42.092399 -1.460590
            CHANNELS 3 Zrotation Xrotation Yrotation
            JOINT LeftToes
            {
               OFFSET -0.040000 -4.415090 8.499099
               CHANNELS 3 Zrotation Xrotation Yrotation
               End Site
               {
                  OFFSET 0.080000 -0.047448 9.779790
               }
            }
         }
      }
   }
}
MOTION
Frames: 12
Frame Time: 0.016667
-229.563099 103.152979 395.830149 33.602984 26.524445 64.958166 -24.688059 -4.385063 -1.050956 7.097339 20.030892 -5.226013 -34.046160 31.385955 36.491262 -1.468023 -8.025696 -26.802122 -47.698998 20.063384 100.041036 12.676437 8.916379 -70.761894 -14.282308 3.506601 -18.126917 -8.410411 83.545023 4.098071 -144.913501 51.798806 -194.554920 -69.543094 27.692116 9.718222 -86.313859 -36.404840 -61.626078 -74.832802 83.066274 133.043807 92.039804 135.470245 195.903049 48.397529 219.093125 121.348556 -38.201624 -32.913889 14.032730 18.913986 -11.015783 27.222416 -37.036691 29.700582 47.499249 -26.789178 39.791408 56.417694 22.386669 -15.798914 -13.627644
-230.357014 102.830075 396.056894 28.849220 24.553418 70.136487 -18.217057 -7.589223 -2.388038 2.382927 22.448848 -6.369218 -31.541769 30.586256 34.685593 -1.162664 -7.321777 -27.838193 -44.709035 19.735972 106.749764 11.292114 5.428183 -80.588289 -14.854446 4.734194 -17.280198 -7.548501 88.958672 6.754211 -141.847197 63.561337 -197.413682 -74.299809 27.896313 18.138262 -88.690737 -37.619063 -61.230160 -77.098492 89.767974 136.088118 87.116529 137.561758 199.083226 57.954722 214.660128 128.410808 -42.361998 -40.002181 9.066680 20.335099 -14.612657 13.190780 -37.493186 22.705497 55.006054 -32.063507 36.524881 54.318049 22.599762 -13.064937 -13.320514
-231.083523 102.389239 396.247591 22.097310 20.883698 76.500987 -11.836790 -11.779530 -5.495040 -0.414489 22.569814 -7.532565 -27.832717 29.479831 33.432591 -0.485606 -5.606685 -29.225867 -38.824793 18.431052 111.635118 10.009655 2.194732 -88.842067 -15.382834 6.485081 -16.334925 -6.113152 93.626676 9.983802 -138.212744 73.304035 -198.149320 -77.867578 27.308445 25.683330 -89.620189 -39.930194 -60.508967 -80.325641 98.311325 140.020654 81.870377 139.989768 204.289100 64.864428 210.058903 132.415839 -47.082734 -44.329365 3.408163 24.513042 -19.999260 -3.323051 -38.040920 14.407249 63.917122 -36.249412 33.320542 51.721669 23.041010 -9.742741 -13.546056
-231.600644 101.727580 396.319879 16.819462 15.949151 81.899139 -6.559419 -15.107118 -8.265043 -1.976761 23.497591 -8.839843 -22.058907 28.706452 32.718648 0.223298 -3.442407 -29.921624 -34.762272 17.820184 117.667890 7.531889 1.179791 -95.326450 -17.391692 8.888294 -14.981639 -3.165163 97.764425 14.417998 -133.634031 81.565245 -197.165186 -80.639713 26.372742 32.830329 -88.081628 -43.769358 -57.986462 -85.223351 109.486122 144.619393 75.732851 142.157055 210.930435 69.826363 207.132945 134.964565 -48.373486 -48.386679 -3.744701 27.581077 -24.679229 -20.237140 -36.252868 6.758011 71.635065 -39.289666 28.925288 51.457573 23.181855 -7.095163 -12.807517
-231.971260 100.734852 396.342195 13.783417 12.247882 84.527505 -3.326586 -18.113445 -10.032455 -3.343596 25.912703 -10.626489 -15.093524 28.887138 32.392432 1.126772 -0.326113 -29.999912 -28.572746 17.441539 122.514210 5.758846 0.139431 -101.788513 -17.518025 11.435670 -13.898816 -4.027518 100.521964 18.184851 -132.054194 90.014804 -195.324887 -81.801856 25.359280 38.846390 -86.984453 -47.096760 -56.067390 -90.043402 122.258651 150.909820 69.535171 144.934565 219.860825 74.261867 203.431147 138.358199 -51.734899 -51.693583 -8.619598 29.109580 -27.271542 -37.062249 -34.180097 -0.205805 79.799122 -41.088574 23.902016 52.489891 23.122193 -5.283434 -11.769981
-232.162625 99.455775 396.293939 11.563007 9.346507 86.664958 -1.860193 -20.149336 -8.629015 -5.218362 29.203734 -11.161229 -6.446016 28.948903 34.153258 1.664207 2.093152 -27.998385 -20.301554 17.151271 127.298784 5.631252 0.383620 -107.678752 -15.868273 12.795065 -13.155198 -6.040583 103.838915 22.762963 -131.919380 97.858682 -191.743532 -82.301567 24.668955 44.899362 -87.029089 -49.371104 -54.455415 -95.110152 137.518592 158.247505 64.674146 149.882668 231.621277 77.442734 199.746369 140.191518 -54.850483 -55.913284 -12.085368 29.020876 -29.999451 -53.722983 -31.820840 -4.938918 87.858615 -42.003266 18.334593 54.367391 22.840310 -4.795240 -10.596157
-232.183319 97.968977 396.105913 10.186367 6.223571 88.629764 0.314450 -21.825154 -8.514136 -5.274903 30.932421 -13.057149 -1.149563 28.806743 33.553250 1.884674 3.161124 -26.666799 -14.249861 15.765610 131.218589 6.925077 -0.514213 -113.431240 -13.596246 11.992248 -12.585896 -8.411920 105.879817 26.152975 -134.225703 106.938127 -189.405626 -83.152471 24.235658 49.396280 -88.248817 -50.823243 -53.549974 -100.244070 153.572050 166.725614 59.749942 155.898398 245.554890 81.081319 196.714994 149.132386 -58.902739 -58.823331 -12.000075 30.314210 -30.335083 -70.627906 -27.511976 -9.913999 94.525153 -51.036481 8.955846 57.488596 21.947163 -8.961417 -9.741966
-232.014634 96.438197 395.822481 9.084593 4.279870 90.468028 1.140042 -23.083782 -8.337237 -4.086551 32.698561 -15.293328 2.654519 27.602239 32.360326 1.693076 2.401022 -24.977442 -9.187920 14.904994 134.876456 6.831003 -1.878133 -119.300114 -9.299865 10.095511 -12.511212 -11.370120 109.759419 29.878704 -137.985066 115.058143 -186.690981 -85.318980 24.510590 53.694873 -91.422690 -50.880852 -52.066976 -105.501861 170.292380 174.334008 57.954906 162.844346 261.752493 81.715243 197.463610 152.679412 -60.768275 -61.624870 -16.212255 30.237046 -32.574081 -85.934018 -25.275091 -13.834785 100.304087 -45.860492 4.880089 59.108819 21.528809 -9.761491 -10.483444
-231.665474 94.897097 395.397371 9.357002 4.084347 91.481409 0.849724 -23.128728 -9.134857 -3.062797 33.215408 -18.755768 4.236850 26.559467 29.192433 1.206298 0.053041 -23.929558 -5.638427 14.071912 138.139032 8.906936 -3.823915 -124.582391 -7.384544 8.884346 -11.999504 -13.728502 113.397328 32.507486 -142.417996 123.055366 -184.039474 -87.447096 24.759272 58.385044 -93.496581 -51.753112 -50.498170 -109.394181 189.192333 180.525779 59.163980 169.872938 279.497051 82.166465 199.368605 156.869761 -63.498834 -63.802949 -19.192367 30.822099 -33.060947 -98.266246 -23.164399 -16.096340 105.892746 -55.507209 1.019335 62.182595 21.077622 -10.257889 -10.908614
-231.173397 93.597287 394.762224 10.109734 2.417687 92.434296 1.555680 -22.686400 -8.910671 -1.222154 34.352921 -21.311015 5.829179 27.215813 26.457452 0.699068 -2.329193 -22.678543 -2.828605 13.898281 140.971703 9.662196 -6.419802 -129.240074 -6.931725 8.182629 -11.251535 -16.131770 116.047127 33.922459 -147.234536 131.531521 -181.657747 -88.283945 24.839728 63.234212 -93.792219 -53.691922 -48.667027 -111.744197 208.558720 185.139996 62.210019 176.594022 298.008175 82.452343 202.329970 161.217695 -65.962204 -65.738460 -21.752290 30.629860 -33.574881 -109.727774 -21.535011 -17.730276 110.743786 -51.339516 -0.595106 63.023740 20.955850 -8.677369 -11.925404
-230.548722 92.408150 393.942713 11.874241 0.399536 93.872897 2.011683 -21.116483 -8.051545 1.326741 36.218277 -23.720294 7.558655 28.367772 23.875527 0.147308 -5.163888 -21.701509 -0.782452 15.107178 143.293831 9.843951 -8.307966 -133.888278 -7.241201 8.604023 -10.375827 -19.171446 118.760269 33.696171 -151.391170 140.435656 -178.395908 -88.898716 24.889925 67.809182 -92.813351 -56.363428 -46.598962 -112.903929 228.044116 188.377423 66.701032 182.443000 317.444708 82.567370 206.207277 164.729587 -68.526004 -66.898588 -24.627039 31.599573 -32.910013 -119.371448 -19.563622 -18.466325 116.730242 -54.675845 -3.403524 63.916610 20.825071 -7.022169 -12.383217
-229.781376 91.506632 392.952227 14.807413 -0.128535 94.659312 0.791876 -17.965033 -6.830560 4.150116 37.940591 -24.969462 9.548214 28.765161 21.528104 -0.493674 -8.985195 -20.730249 3.994364 15.342732 145.604484 10.395994 -11.030664 -137.685098 -8.075044 10.388103 -9.399890 -19.438870 121.648729 35.331612 -154.531541 148.948230 -176.759012 -89.097707 24.716382 73.992252 -92.991707 -58.516621 -45.691537 -113.018819 248.518373 190.219812 72.539150 188.366645 336.324716 81.509271 210.141234 165.943407 -70.094072 -67.874520 -31.044753 31.090512 -31.534977 -127.982746 -18.385109 -19.212940 122.959743 -55.532126 -4.316684 64.368324 20.997279 -3.212379 -13.037228
